<?xml version="1.0" standalone="no"?>
<!DOCTYPE svg PUBLIC "-//W3C//DTD SVG 20010904//EN"
 "http://www.w3.org/TR/2001/REC-SVG-20010904/DTD/svg10.dtd">
<svg version="1.0" xmlns="http://www.w3.org/2000/svg"
 width="1024.000000pt" height="1024.000000pt" viewBox="0 0 1024.000000 1024.000000"
 preserveAspectRatio="xMidYMid meet">
<metadata>
Created by potrace 1.11, written by Peter Selinger 2001-2013
</metadata>
<g transform="translate(0.000000,1024.000000) scale(0.100000,-0.100000)"
fill="#000000" stroke="none">
<path d="M5113 9672 c-24 -2 -43 -7 -43 -11 0 -5 -12 -8 -27 -8 -15 0 -29 -6
-31 -12 -2 -6 -8 -11 -13 -11 -6 0 -7 6 -3 13 6 8 3 8 -9 -1 -9 -8 -21 -11
-27 -7 -5 3 -13 0 -16 -9 -3 -8 -12 -12 -20 -9 -8 3 -14 0 -14 -7 0 -6 -5 -8
-10 -5 -6 4 -17 1 -25 -5 -8 -7 -15 -10 -15 -6 0 3 -12 1 -27 -5 -16 -6 -41
-13 -58 -16 -16 -3 -33 -10 -37 -16 -4 -7 -8 -8 -8 -3 0 5 -8 2 -17 -5 -9 -8
-14 -9 -10 -2 4 6 -11 2 -33 -8 -22 -11 -45 -17 -50 -14 -6 3 -10 1 -10 -4 0
-6 -11 -11 -25 -11 -14 0 -25 -4 -25 -10 0 -5 -7 -6 -17 -3 -10 4 -14 2 -10
-4 3 -5 -3 -9 -16 -8 -12 1 -26 -1 -32 -5 -10 -7 -60 -21 -70 -19 -4 0 -18 -7
-32 -16 -17 -12 -23 -13 -17 -4 7 12 5 12 -9 1 -9 -8 -22 -10 -28 -6 -8 5 -9
3 -4 -6 6 -10 4 -12 -8 -7 -9 3 -19 2 -23 -4 -3 -6 -12 -8 -19 -5 -7 2 -24 -2
-39 -9 -14 -8 -39 -16 -55 -18 -15 -3 -38 -10 -50 -16 -11 -7 -21 -9 -21 -6 0
3 -13 -1 -30 -10 -16 -9 -30 -13 -30 -9 0 4 -7 1 -15 -6 -9 -7 -18 -10 -22 -6
-3 3 -15 -2 -26 -11 -11 -10 -17 -12 -13 -5 7 11 4 11 -15 0 -13 -7 -28 -17
-32 -23 -6 -6 -10 -6 -14 2 -3 9 -11 9 -29 -3 -13 -9 -24 -13 -24 -9 0 5 -8 1
-18 -8 -14 -13 -21 -14 -30 -5 -9 9 -12 9 -12 -1 0 -7 -4 -10 -9 -6 -5 3 -12
1 -16 -5 -4 -6 -11 -8 -16 -5 -5 4 -9 2 -9 -4 0 -5 -9 -8 -20 -6 -11 2 -20 0
-20 -5 0 -4 -8 -7 -17 -6 -10 2 -23 -4 -30 -13 -7 -9 -12 -11 -13 -4 0 8 -9 7
-30 -3 -16 -9 -34 -13 -39 -10 -5 4 -11 2 -13 -4 -1 -5 -12 -11 -23 -13 -61
-13 -85 -20 -85 -27 0 -5 -8 -7 -17 -6 -10 2 -24 -4 -32 -12 -10 -10 -16 -11
-19 -3 -2 7 -15 3 -35 -11 -17 -13 -27 -16 -22 -7 6 11 5 11 -5 2 -7 -6 -19
-9 -28 -6 -11 5 -13 3 -7 -7 6 -10 0 -12 -24 -8 -17 2 -29 2 -26 -1 7 -7 -67
-31 -77 -25 -4 3 -8 0 -8 -5 0 -6 -12 -11 -26 -11 -14 0 -23 -4 -20 -8 3 -5
-8 -8 -25 -7 -16 1 -32 -2 -35 -7 -3 -4 -14 -8 -25 -8 -10 0 -19 -4 -19 -8 0
-4 -8 -9 -17 -10 -19 -2 -54 -9 -63 -12 -3 -1 -8 -2 -12 -1 -5 0 -8 -3 -8 -9
0 -5 -6 -7 -14 -4 -8 3 -17 0 -21 -5 -3 -6 -10 -9 -15 -6 -5 3 -11 1 -15 -4
-3 -6 -12 -8 -20 -4 -8 3 -15 -1 -15 -8 0 -7 -3 -10 -6 -6 -4 3 -22 0 -40 -8
-19 -8 -34 -11 -34 -8 0 3 -11 -2 -25 -11 -18 -12 -25 -13 -25 -4 0 10 -2 10
-9 0 -4 -8 -11 -13 -15 -13 -3 1 -7 1 -8 0 -2 0 -12 -2 -22 -4 -10 -2 -23 -10
-27 -17 -7 -10 -9 -10 -9 2 0 9 -3 11 -8 5 -10 -14 -55 -39 -47 -26 3 6 1 11
-4 11 -6 0 -11 -5 -11 -11 0 -5 -5 -7 -10 -4 -6 4 -17 1 -25 -5 -8 -7 -21 -10
-29 -7 -8 3 -20 0 -26 -8 -6 -8 -17 -12 -24 -9 -8 3 -16 -3 -20 -13 -6 -15 -8
-15 -16 -3 -7 12 -12 12 -22 2 -6 -6 -20 -12 -30 -12 -10 0 -18 -5 -18 -11 0
-5 -4 -8 -8 -5 -5 3 -20 -1 -35 -9 -19 -10 -27 -10 -31 -2 -3 8 -5 8 -5 -1 -1
-7 -5 -10 -11 -7 -5 3 -10 1 -10 -5 0 -6 -5 -8 -10 -5 -6 4 -18 1 -27 -7 -9
-7 -18 -12 -20 -10 -9 7 -33 1 -28 -7 3 -6 -4 -8 -15 -6 -11 2 -20 -1 -20 -7
0 -7 -4 -7 -14 1 -10 9 -16 8 -26 -4 -7 -9 -19 -14 -27 -11 -7 3 -13 1 -13 -5
0 -6 -4 -8 -9 -4 -5 3 -12 1 -16 -5 -4 -6 -11 -8 -16 -5 -5 4 -9 2 -9 -3 0 -6
-9 -8 -20 -5 -12 3 -20 0 -20 -6 0 -7 -4 -10 -8 -7 -5 3 -20 -1 -33 -8 -24
-12 -31 -14 -79 -18 -11 -1 -20 -6 -20 -11 0 -4 -4 -5 -10 -2 -5 3 -10 1 -10
-5 0 -6 -4 -8 -10 -5 -5 3 -10 1 -10 -6 0 -7 -3 -9 -7 -6 -3 4 -13 1 -21 -6
-13 -9 -14 -9 -8 1 4 6 2 12 -3 12 -6 0 -11 -5 -11 -11 0 -5 -5 -7 -10 -4 -6
3 -10 2 -10 -4 0 -6 -7 -8 -15 -5 -8 4 -15 2 -15 -3 0 -5 -8 -9 -17 -10 -33
-2 -78 -14 -83 -22 -3 -4 -15 -7 -28 -6 -12 1 -22 -2 -22 -7 0 -5 -4 -7 -9 -3
-5 3 -13 0 -16 -6 -4 -5 -13 -8 -21 -5 -8 3 -14 1 -14 -5 0 -6 -4 -7 -10 -4
-5 3 -10 1 -10 -6 0 -7 -3 -10 -6 -7 -3 4 -20 2 -37 -3 -18 -6 -41 -12 -52
-14 -11 -3 -29 -9 -40 -13 -43 -19 -88 -31 -96 -26 -5 3 -9 1 -9 -3 0 -5 -10
-9 -22 -10 -12 -1 -26 -9 -30 -18 -5 -8 -13 -13 -19 -10 -5 3 -6 -1 -3 -10 4
-8 0 -23 -7 -32 -10 -12 -10 -15 -2 -9 7 4 13 2 13 -3 0 -6 -5 -11 -12 -11 -9
0 -9 -3 0 -12 8 -8 8 -17 1 -30 -5 -10 -7 -23 -4 -28 3 -6 2 -10 -4 -10 -6 0
-8 -7 -5 -15 4 -8 1 -22 -6 -30 -7 -8 -8 -15 -3 -15 5 0 9 -9 9 -20 0 -11 -3
-20 -6 -20 -3 0 -7 -19 -9 -42 -1 -23 -4 -45 -7 -49 -2 -4 0 -11 6 -14 8 -5 7
-11 -1 -21 -15 -18 -18 -53 -7 -76 4 -9 4 -19 0 -22 -5 -3 -9 -29 -11 -57 -1
-29 -5 -57 -8 -62 -3 -6 -1 -7 5 -3 7 4 12 2 12 -3 0 -6 -5 -11 -11 -11 -5 0
-8 -4 -4 -9 3 -5 0 -13 -6 -17 -8 -5 -8 -9 1 -14 8 -5 9 -13 4 -21 -13 -21
-13 -39 -1 -39 8 0 7 -4 -1 -12 -7 -7 -12 -17 -12 -22 0 -6 5 -4 10 4 6 9 10
10 10 3 0 -6 -5 -15 -11 -19 -8 -4 -7 -9 2 -15 11 -7 11 -9 -1 -9 -13 0 -13
-1 0 -10 13 -8 13 -10 0 -15 -13 -4 -15 -43 -14 -248 1 -133 -2 -249 -7 -258
-4 -9 -5 -19 -2 -23 4 -4 8 -13 9 -20 1 -7 5 -24 9 -37 3 -13 3 -19 -2 -12 -4
6 -8 -72 -7 -174 1 -148 4 -187 15 -194 12 -7 12 -9 -1 -9 -9 0 -11 -3 -5 -8
13 -9 16 -42 4 -42 -5 0 -4 -12 1 -26 8 -19 7 -24 -3 -18 -9 5 -9 4 0 -6 8 -9
9 -19 2 -32 -7 -12 -6 -18 2 -18 7 0 10 -19 7 -54 -1 -30 0 -52 4 -49 5 2 8
-1 8 -6 0 -6 -4 -11 -9 -11 -10 0 -2 -48 10 -56 5 -3 5 -14 -1 -25 -6 -10 -7
-19 -2 -19 4 0 8 -9 8 -20 0 -11 -4 -20 -9 -20 -5 0 -4 -7 3 -15 10 -12 10
-15 -1 -15 -9 0 -10 -3 -3 -8 6 -4 11 -28 12 -53 0 -26 5 -56 11 -68 8 -13 8
-21 2 -21 -7 0 -7 -9 -1 -25 5 -14 7 -25 4 -25 -2 0 0 -9 6 -20 8 -14 8 -20 0
-20 -7 0 -7 -6 0 -21 7 -11 9 -27 6 -35 -3 -8 0 -14 6 -14 7 0 6 -5 -2 -15 -8
-10 -9 -15 -2 -15 6 0 9 -6 6 -14 -3 -8 -1 -17 5 -21 8 -4 8 -12 1 -25 -7 -13
-7 -21 0 -25 6 -4 8 -11 5 -16 -4 -5 0 -9 7 -9 9 0 9 -3 -2 -10 -8 -5 -10 -10
-3 -10 6 0 10 -8 8 -17 -1 -10 2 -24 8 -30 6 -8 6 -13 0 -13 -5 0 -8 -13 -5
-30 2 -16 9 -30 14 -30 7 0 6 -5 -1 -13 -8 -10 -7 -17 1 -25 7 -7 8 -12 4 -12
-5 0 -3 -7 4 -15 10 -12 10 -15 0 -15 -9 0 -9 -4 1 -17 12 -15 12 -16 -1 -8
-13 8 -13 6 -2 -8 8 -9 10 -22 6 -28 -4 -8 -3 -9 4 -5 7 4 12 3 12 -3 0 -5 -6
-12 -12 -14 -10 -4 -10 -8 1 -15 8 -6 12 -19 8 -31 -3 -11 1 -25 9 -32 11 -9
11 -15 3 -25 -9 -11 -8 -14 1 -14 7 0 10 -7 7 -15 -4 -8 -2 -17 2 -20 5 -3 7
-14 4 -25 -3 -11 0 -20 6 -20 6 0 11 -5 11 -11 0 -5 -6 -7 -12 -3 -10 6 -10 4
-2 -7 6 -8 12 -22 13 -31 3 -41 5 -48 14 -48 5 0 3 -8 -4 -17 -12 -14 -12 -16
0 -8 11 6 13 4 8 -7 -3 -9 0 -21 6 -28 9 -10 9 -11 0 -6 -9 5 -11 2 -7 -8 3
-9 11 -16 16 -16 6 0 5 -6 -2 -15 -10 -12 -10 -15 0 -15 7 0 10 -6 7 -14 -3
-7 0 -19 6 -26 9 -10 9 -11 -3 -5 -13 8 -13 6 -2 -8 8 -9 11 -21 8 -26 -4 -5
-2 -12 4 -16 5 -3 10 -19 10 -36 0 -16 5 -29 12 -29 6 0 8 -3 5 -7 -4 -3 -2
-12 4 -20 9 -10 8 -13 -1 -13 -9 0 -7 -7 6 -22 12 -13 13 -18 4 -13 -13 8 -13
7 -1 -8 7 -9 10 -17 6 -17 -4 0 -3 -6 2 -13 6 -6 9 -22 8 -34 -1 -13 2 -23 8
-23 5 0 7 -6 4 -12 -2 -7 3 -22 12 -32 9 -11 10 -16 4 -12 -7 4 -13 2 -13 -3
0 -6 4 -11 8 -11 5 0 9 -6 9 -12 0 -23 25 -103 35 -115 7 -9 7 -13 0 -13 -6 0
-1 -18 10 -41 10 -22 17 -47 14 -55 -3 -7 2 -20 10 -29 9 -8 12 -15 8 -15 -3
0 0 -8 7 -17 12 -15 12 -16 -1 -8 -13 8 -13 7 -1 -8 7 -9 10 -17 5 -17 -5 0
-2 -5 8 -10 10 -6 14 -18 11 -30 -3 -12 0 -20 8 -20 7 0 9 -3 6 -7 -4 -3 -2
-12 5 -20 6 -7 8 -16 5 -19 -3 -3 3 -25 13 -49 10 -24 16 -46 13 -49 -4 -3 -1
-6 6 -6 8 0 11 -7 7 -15 -3 -8 -1 -15 5 -15 6 0 9 -6 6 -14 -3 -8 -1 -17 6
-20 9 -3 8 -5 -1 -5 -7 -1 -11 -5 -7 -10 5 -9 -13 -18 -55 -26 -11 -2 -34 -11
-51 -19 -17 -9 -26 -10 -22 -3 4 6 -10 1 -30 -11 -24 -14 -37 -17 -37 -9 0 7
-3 8 -8 2 -4 -5 -16 -12 -27 -13 -11 -2 -23 -8 -26 -13 -3 -5 -14 -7 -24 -3
-13 5 -16 4 -11 -4 6 -11 -19 -18 -46 -13 -5 0 -8 -4 -8 -10 0 -5 -4 -7 -10
-4 -5 3 -28 -3 -50 -14 -22 -10 -37 -14 -33 -8 3 7 -3 4 -15 -6 -11 -11 -26
-16 -31 -12 -6 3 -11 2 -11 -3 0 -5 -7 -9 -15 -10 -8 -1 -22 -3 -30 -4 -8 -1
-15 -5 -15 -9 0 -4 -9 -6 -19 -4 -11 2 -22 -3 -26 -13 -5 -14 -7 -14 -15 -2
-6 10 -10 11 -10 3 0 -7 -7 -10 -17 -6 -12 5 -14 3 -8 -7 6 -10 4 -12 -8 -7
-10 3 -17 3 -17 -2 0 -7 -48 -22 -66 -20 -4 0 -11 -5 -15 -13 -7 -11 -9 -11
-9 0 0 10 -4 9 -16 -2 -8 -9 -20 -14 -25 -11 -5 4 -9 1 -9 -5 0 -6 -4 -9 -9
-5 -5 3 -12 1 -16 -5 -4 -6 -11 -8 -16 -5 -5 4 -9 1 -9 -5 0 -6 -5 -8 -11 -5
-5 4 -19 -1 -29 -10 -10 -9 -24 -14 -29 -10 -6 3 -11 1 -11 -5 0 -6 -4 -8 -10
-5 -5 3 -10 1 -10 -6 0 -7 -3 -9 -7 -6 -3 4 -12 2 -20 -4 -7 -6 -13 -8 -13 -3
0 5 -4 3 -9 -4 -4 -7 -18 -14 -29 -15 -12 -1 -22 -5 -22 -9 0 -4 -6 -5 -14 -2
-7 3 -22 -3 -31 -13 -10 -10 -20 -17 -22 -15 -7 5 -36 1 -30 -5 4 -3 2 -13 -5
-20 -9 -11 -9 -16 1 -22 6 -4 11 -12 10 -17 -4 -24 2 -44 15 -44 8 0 17 -7 20
-16 4 -9 9 -14 12 -11 3 3 16 -4 29 -15 13 -11 25 -18 27 -17 2 2 14 -6 27
-18 14 -13 43 -35 65 -50 23 -15 44 -32 47 -36 3 -5 9 -8 13 -8 20 3 26 0 21
-9 -3 -5 0 -10 8 -10 8 0 22 -9 32 -20 10 -11 24 -20 32 -20 7 0 13 -5 13 -11
0 -5 5 -7 10 -4 6 3 10 2 10 -4 0 -5 9 -13 20 -16 11 -4 18 -10 15 -15 -3 -5
1 -11 7 -13 10 -4 10 -6 1 -6 -7 -1 -13 -6 -13 -12 0 -6 6 -7 12 -2 7 4 5 -5
-5 -20 -9 -15 -13 -27 -7 -27 7 0 8 -6 0 -19 -5 -11 -10 -29 -10 -40 0 -12 -3
-21 -8 -21 -4 0 -8 -12 -9 -27 -3 -64 -9 -93 -17 -93 -5 0 -6 -3 -3 -6 3 -4 2
-16 -4 -27 -9 -15 -8 -18 3 -11 10 6 11 5 1 -8 -7 -8 -10 -18 -6 -21 3 -4 1
-7 -6 -7 -7 0 -10 -4 -7 -9 4 -5 2 -21 -4 -36 -8 -20 -7 -24 3 -18 6 4 4 -5
-6 -20 -11 -17 -13 -27 -6 -27 8 0 8 -4 1 -13 -6 -7 -12 -30 -14 -52 -2 -22
-7 -45 -11 -52 -4 -6 2 -13 13 -16 12 -3 17 -1 14 5 -3 5 0 8 7 7 8 -1 28 4
44 11 17 7 32 14 35 15 3 1 18 7 33 13 16 7 35 12 43 12 8 0 14 4 14 9 0 6 9
8 20 6 11 -2 18 0 15 4 -6 11 23 23 36 15 5 -3 9 0 9 6 0 6 5 8 10 5 6 -3 10
-2 10 4 0 6 7 7 17 4 11 -4 14 -3 9 5 -5 8 3 12 24 12 21 0 29 4 24 12 -5 8
-2 9 9 5 9 -3 19 -2 22 4 4 5 11 7 16 4 5 -4 9 -1 9 5 0 6 4 9 9 5 6 -3 26 4
46 15 20 11 34 17 31 12 -3 -5 12 0 34 10 21 11 45 21 52 22 7 1 19 5 26 9 6
5 17 5 22 2 6 -3 10 -1 10 4 0 6 3 10 7 10 22 -4 44 2 39 10 -3 5 8 7 24 6 17
-1 30 2 30 7 0 6 7 5 15 -2 9 -7 14 -19 11 -27 -3 -8 1 -16 9 -19 8 -4 13 -9
10 -13 -2 -4 2 -20 10 -35 10 -18 10 -25 2 -20 -9 5 -9 3 1 -7 6 -7 12 -21 12
-32 0 -10 3 -16 8 -14 4 3 8 -9 9 -26 1 -17 6 -33 10 -36 8 -6 12 -20 17 -48
1 -7 5 -15 8 -19 4 -3 4 -12 2 -19 -3 -7 1 -15 9 -18 9 -3 13 -16 12 -31 -2
-14 1 -26 7 -26 6 0 8 -7 4 -15 -3 -8 -1 -15 4 -15 5 0 7 -7 4 -15 -4 -8 -1
-15 5 -15 6 0 10 -6 9 -12 -4 -19 50 -12 64 7 5 6 8 5 8 -3 0 -7 5 -10 10 -7
6 4 7 12 3 18 -4 7 0 6 10 -2 13 -11 17 -11 17 -1 0 8 3 10 7 7 3 -4 12 -2 20
4 7 6 13 8 13 4 0 -4 12 0 26 10 15 9 23 12 19 5 -4 -7 6 -5 24 4 17 9 31 13
31 10 0 -4 8 0 18 9 10 10 21 14 25 11 3 -4 14 -3 24 1 10 5 21 9 26 10 4 2
10 4 15 5 4 1 12 3 17 4 14 3 47 16 67 27 10 5 24 6 33 3 8 -4 15 -1 15 7 0 7
3 9 7 6 3 -4 13 -1 21 6 13 10 14 9 7 -3 -8 -13 -6 -13 8 -2 9 8 20 11 26 8 5
-3 12 2 15 11 6 15 8 15 17 3 8 -11 12 -12 16 -2 6 15 43 16 43 1 0 -5 4 -7
10 -4 5 3 10 3 10 -2 0 -4 14 -24 30 -43 16 -19 30 -41 30 -47 0 -7 7 -13 16
-13 8 0 13 -4 10 -8 -3 -5 4 -14 14 -22 10 -8 17 -17 14 -21 -2 -4 6 -16 19
-26 13 -10 22 -24 19 -31 -2 -6 2 -12 10 -12 8 0 21 -12 30 -27 24 -42 59 -78
70 -75 6 2 8 -3 5 -11 -3 -7 4 -19 14 -25 10 -7 19 -20 19 -29 0 -9 3 -13 6
-10 4 3 24 -16 46 -43 22 -28 44 -47 49 -44 5 3 9 2 8 -3 -3 -20 2 -33 13 -31
7 2 12 -3 10 -9 -1 -7 4 -13 11 -13 8 0 20 -11 27 -25 7 -14 17 -25 22 -25 4
0 8 -7 8 -15 0 -8 7 -15 16 -15 8 0 13 -4 10 -8 -3 -5 4 -15 16 -23 11 -8 36
-30 54 -50 19 -20 45 -42 59 -49 14 -7 25 -20 25 -28 0 -9 3 -12 7 -9 3 4 14
-4 23 -19 10 -14 21 -26 26 -27 5 -1 8 -5 7 -9 -2 -4 8 -10 22 -14 14 -3 23
-10 20 -14 -3 -5 -1 -10 4 -12 13 -5 90 -69 127 -105 18 -17 35 -29 38 -26 3
4 6 1 6 -6 0 -7 5 -9 10 -6 5 3 10 2 10 -4 0 -6 17 -22 37 -36 21 -14 33 -25
28 -25 -6 -1 5 -7 23 -15 17 -8 32 -19 32 -25 0 -5 7 -10 15 -10 9 0 18 -7 21
-15 4 -8 10 -12 15 -9 5 3 9 -1 9 -9 0 -8 11 -18 25 -21 14 -4 25 -11 25 -16
0 -6 7 -10 16 -10 9 0 12 -5 8 -12 -4 -6 -3 -8 4 -4 6 3 20 -4 31 -16 12 -12
21 -18 21 -14 0 4 9 -2 20 -12 11 -10 33 -25 48 -33 15 -8 32 -21 39 -29 7 -8
13 -11 13 -7 0 4 10 -1 22 -13 12 -11 34 -26 50 -32 15 -7 28 -16 28 -20 0 -5
9 -8 20 -8 11 0 23 -7 26 -15 4 -8 10 -12 15 -9 5 3 9 0 9 -6 0 -6 5 -8 10 -5
6 3 10 2 10 -3 0 -5 18 -17 40 -28 22 -10 40 -22 40 -26 0 -5 7 -8 15 -8 9 0
28 -11 42 -24 15 -14 31 -22 35 -19 5 3 19 -3 30 -14 14 -12 19 -13 13 -3 -4
8 3 5 17 -8 13 -12 28 -19 31 -15 4 3 7 0 7 -7 0 -7 3 -10 7 -7 3 4 15 -1 26
-10 10 -10 24 -18 30 -19 25 -2 57 -17 57 -25 0 -5 7 -9 16 -9 9 0 30 -10 47
-22 18 -13 28 -16 23 -7 -4 7 1 3 12 -10 10 -13 24 -21 30 -17 6 3 16 0 24 -7
7 -8 19 -12 26 -9 6 2 12 -1 12 -7 0 -6 3 -11 8 -10 4 1 17 -2 29 -6 12 -4 25
-7 28 -6 3 1 13 -5 22 -14 8 -9 22 -14 29 -11 8 3 14 2 14 -3 0 -9 48 -26 63
-23 4 1 7 -2 7 -8 0 -6 3 -9 8 -8 4 1 24 -6 46 -15 21 -9 45 -17 52 -17 8 0
14 -5 14 -11 0 -5 4 -8 9 -4 5 3 13 0 16 -6 4 -5 13 -8 21 -5 8 3 14 0 14 -6
0 -6 3 -8 7 -5 3 4 12 2 20 -4 7 -6 13 -8 13 -5 0 4 7 0 16 -9 14 -13 19 -14
25 -3 7 11 9 11 9 0 0 -7 4 -11 9 -7 5 3 12 1 16 -5 3 -5 15 -10 26 -10 10 0
19 -4 19 -8 0 -4 15 -9 33 -10 17 -2 33 -7 35 -12 2 -5 10 -6 18 -3 8 3 14 -1
14 -8 0 -11 3 -11 10 1 5 8 10 10 10 5 0 -9 42 -12 60 -5 3 1 8 2 13 1 4 0 7
3 7 8 0 7 22 15 75 27 6 1 13 3 18 4 4 1 11 3 16 4 5 0 13 4 17 8 4 5 18 8 31
8 13 0 23 5 23 11 0 6 7 9 15 5 8 -3 19 2 24 12 8 14 11 14 11 2 1 -13 2 -13
13 0 7 8 17 15 22 16 31 2 75 18 75 26 0 5 5 6 10 3 6 -3 10 -1 10 5 0 6 4 9
9 5 5 -3 12 -1 16 5 4 6 11 8 16 5 5 -4 9 -2 9 3 0 9 55 26 73 23 4 0 7 4 7
11 0 6 3 8 7 5 3 -4 17 0 30 8 13 9 28 13 32 10 5 -3 11 0 13 5 2 6 10 12 18
14 8 1 26 8 40 16 14 7 26 11 27 9 1 -2 11 3 21 12 10 8 23 14 28 12 6 -2 21
6 33 17 13 11 28 17 32 14 5 -3 9 0 9 6 0 6 5 8 10 5 6 -3 10 -2 10 3 0 9 37
25 53 23 4 -1 7 3 7 8 0 7 36 22 43 18 1 -1 16 8 33 20 17 12 34 20 38 16 3
-3 6 -1 6 6 0 7 5 9 10 6 6 -3 13 0 16 9 3 8 11 13 18 10 6 -2 21 4 33 15 11
11 24 17 27 14 3 -4 6 -1 6 5 0 7 9 12 20 12 11 0 23 7 26 15 4 8 15 15 25 15
11 0 22 6 25 14 3 8 16 17 30 20 13 4 24 11 24 16 0 6 9 10 19 10 10 0 22 7
25 16 3 8 10 12 16 9 5 -3 10 -1 10 4 0 6 3 10 8 9 13 -3 42 14 37 22 -3 5 8
11 25 15 16 4 30 10 30 15 0 5 9 12 20 15 11 4 17 11 14 17 -4 6 -2 8 4 4 6
-3 17 1 25 9 9 8 20 15 25 15 6 0 12 3 14 8 2 4 22 20 46 36 23 16 42 33 42
37 0 5 6 9 14 9 7 0 19 7 26 15 7 9 15 13 18 10 3 -3 11 4 19 15 8 11 19 20
25 20 6 0 19 10 29 22 11 11 19 18 19 14 0 -4 11 4 25 16 57 51 65 58 65 53 0
-2 18 13 40 35 22 22 40 36 40 32 0 -4 5 1 11 11 6 9 14 15 18 13 4 -3 13 5
20 17 7 12 32 35 56 52 24 16 42 31 40 33 -5 6 40 49 48 45 4 -2 7 3 7 11 0 9
6 16 13 16 8 0 26 14 40 30 15 17 31 30 36 30 5 0 12 9 16 19 3 11 15 23 26
26 11 4 18 9 15 12 -3 3 6 14 19 25 14 11 25 26 25 34 0 8 7 14 17 14 9 0 13
3 10 7 -4 3 8 17 25 30 18 12 28 23 22 23 -5 0 4 9 19 19 16 10 29 22 29 27 1
20 11 34 29 39 10 4 19 11 19 17 0 12 36 59 41 53 3 -2 20 18 38 46 19 27 38
49 43 49 5 0 6 4 3 10 -3 6 1 10 10 10 9 0 13 5 10 10 -3 6 -1 10 5 10 6 0 8
5 5 10 -3 6 1 10 10 10 9 0 13 5 10 10 -3 6 -1 10 4 10 6 0 11 6 11 14 0 8 7
16 15 20 8 3 15 12 15 20 0 8 9 17 20 21 11 3 19 9 19 13 -2 17 14 51 22 46 5
-3 18 11 30 30 12 20 23 36 26 36 2 0 1 -5 -3 -11 -4 -8 1 -9 16 -4 17 5 21 4
15 -6 -6 -11 -5 -11 4 -3 10 9 19 9 39 -2 14 -7 29 -11 34 -8 4 3 8 1 8 -5 0
-6 7 -7 17 -4 10 4 14 2 10 -4 -3 -5 3 -9 16 -8 12 1 25 -2 28 -7 3 -5 20 -10
37 -11 18 -1 34 -8 36 -14 3 -7 12 -10 21 -7 8 4 22 1 30 -6 8 -6 19 -9 25 -5
5 3 10 2 10 -4 0 -6 7 -8 15 -5 8 4 15 1 15 -6 0 -6 5 -8 10 -5 6 4 17 1 25
-5 8 -6 19 -9 24 -6 5 4 12 2 16 -3 3 -6 12 -8 20 -4 8 3 15 0 15 -7 0 -6 5
-8 10 -5 5 3 10 0 10 -7 0 -11 2 -10 9 0 7 11 9 10 15 -3 3 -9 11 -13 16 -10
6 4 17 1 25 -5 8 -6 19 -9 25 -5 5 3 10 0 10 -7 0 -9 3 -9 10 2 6 9 10 11 10
3 0 -7 7 -10 15 -7 10 4 13 13 10 25 -4 11 -2 19 4 19 6 0 11 8 11 18 0 10 5
23 12 30 7 7 9 12 6 12 -4 0 -1 15 7 34 8 18 11 36 8 40 -4 3 -1 6 5 6 7 0 11
3 11 8 -1 4 0 9 1 12 5 15 12 48 14 67 0 11 5 19 10 15 5 -3 7 5 4 16 -4 12
-2 20 3 16 8 -4 14 17 10 39 0 4 4 7 10 7 5 0 7 5 4 10 -4 6 -1 17 5 25 6 8 9
19 5 25 -3 5 -1 10 6 10 7 0 9 3 6 7 -4 3 0 14 9 24 12 13 21 16 34 9 10 -5
20 -6 24 -3 3 3 6 1 6 -5 0 -6 7 -9 15 -6 8 4 15 1 15 -6 0 -6 4 -8 10 -5 5 3
26 -3 47 -14 21 -10 41 -19 45 -20 49 -9 68 -15 68 -22 0 -5 8 -9 18 -9 9 0
30 -7 45 -15 15 -8 25 -10 22 -5 -3 6 1 7 9 4 9 -3 16 -10 16 -15 0 -4 7 -6
15 -3 8 4 15 1 15 -6 0 -6 5 -8 10 -5 6 3 10 2 10 -2 0 -5 12 -10 28 -11 15
-1 29 -7 30 -12 2 -6 8 -8 13 -4 5 3 9 0 9 -6 0 -6 5 -8 10 -5 5 3 10 1 10 -5
0 -6 5 -8 10 -5 6 3 10 2 10 -3 0 -5 9 -12 20 -15 11 -3 18 -1 15 3 -3 4 6 3
20 -3 14 -7 25 -15 25 -19 0 -4 9 -5 20 -3 11 2 20 -1 20 -6 0 -6 5 -7 10 -4
6 3 10 1 10 -6 0 -7 3 -10 6 -6 4 3 20 -1 36 -9 31 -16 83 -10 57 7 -12 7 -11
9 1 9 12 1 11 3 -3 11 -14 8 -15 14 -7 24 8 10 7 16 -7 24 -10 6 -13 11 -6 11
14 0 5 40 -9 40 -6 0 -6 6 1 14 8 10 9 16 1 21 -6 3 -8 10 -5 15 3 5 0 12 -6
16 -8 5 -8 8 1 14 8 5 8 11 -3 21 -7 8 -12 20 -9 27 2 7 -2 20 -10 29 -9 12
-9 15 0 9 6 -4 12 -2 12 3 0 6 -4 11 -10 11 -5 0 -7 7 -4 15 4 9 0 15 -7 15
-11 0 -11 2 -1 9 10 6 10 10 -1 19 -8 7 -12 23 -9 37 3 17 0 25 -9 25 -11 0
-11 2 1 10 12 8 12 10 1 10 -8 0 -11 3 -8 7 4 3 2 12 -4 20 -8 9 -8 13 0 13 7
0 8 8 0 27 -5 14 -8 32 -5 40 3 7 1 13 -4 13 -6 0 -5 8 2 19 7 11 15 18 19 15
4 -2 10 3 13 12 4 9 9 14 12 11 3 -3 14 3 25 14 10 10 26 19 35 19 8 0 12 5 9
10 -6 9 7 14 21 8 3 -2 10 5 15 15 6 9 14 15 20 12 5 -4 9 2 9 11 0 10 3 15 6
11 4 -3 12 -1 20 6 33 30 42 35 48 30 3 -3 8 2 12 11 3 9 12 16 20 16 8 0 14
5 14 11 0 5 4 8 9 5 5 -3 14 1 21 9 7 8 17 12 23 8 5 -3 7 -1 4 4 -4 6 0 14 9
17 8 3 12 10 9 16 -3 6 0 7 9 4 9 -3 23 1 31 10 9 9 13 16 8 16 -5 0 -9 9 -9
20 0 11 3 20 7 20 10 0 -2 49 -14 57 -6 4 -7 1 -3 -8 4 -8 2 -7 -6 2 -7 9 -16
17 -20 17 -5 1 -9 2 -10 3 -2 0 -14 3 -28 5 -13 2 -27 8 -30 12 -3 4 -11 8
-18 10 -6 1 -18 3 -25 5 -6 1 -15 6 -18 10 -3 4 -16 9 -27 10 -12 1 -22 5 -22
9 0 4 -9 8 -20 8 -11 0 -20 4 -20 10 0 5 -7 7 -15 4 -8 -4 -15 -1 -15 6 0 7
-7 10 -15 6 -8 -3 -15 -1 -15 5 0 6 -4 8 -9 4 -5 -3 -12 -1 -16 5 -4 6 -10 8
-15 5 -5 -3 -11 -1 -15 5 -3 5 -17 10 -30 10 -13 0 -25 4 -27 10 -1 5 -15 11
-30 12 -16 1 -28 6 -28 11 0 4 -4 5 -10 2 -5 -3 -10 -1 -10 5 0 6 -4 8 -10 5
-5 -3 -10 -2 -10 2 0 8 -25 13 -72 16 -9 1 -14 5 -12 9 3 4 -4 8 -16 8 -11 0
-28 4 -38 9 -27 14 -80 33 -88 31 -4 -1 -11 4 -15 12 -7 10 -9 10 -9 -2 0 -11
-2 -12 -8 -2 -5 7 -17 14 -28 16 -10 2 -31 9 -45 14 -15 6 -30 8 -33 5 -3 -4
-6 -1 -6 6 0 8 -7 11 -15 7 -8 -3 -15 -1 -15 5 0 6 -4 7 -10 4 -5 -3 -10 -2
-10 3 0 6 -9 8 -20 5 -11 -3 -20 -1 -20 5 0 6 -8 8 -19 5 -10 -3 -22 0 -25 6
-4 6 -16 11 -27 11 -10 0 -19 4 -19 9 0 5 -8 7 -17 5 -22 -5 -79 31 -64 40 5
4 8 13 4 21 -3 8 -1 15 4 15 5 0 10 10 10 22 1 13 7 24 13 26 5 2 10 17 10 33
0 16 4 29 9 29 6 0 8 9 6 20 -2 11 1 20 6 20 6 0 7 5 4 11 -4 5 1 20 12 31 10
12 13 18 6 15 -7 -5 -6 4 3 23 9 16 13 34 10 39 -4 5 -2 11 4 13 6 2 12 13 15
26 3 12 7 31 10 43 2 12 10 28 17 37 11 13 11 14 -2 7 -12 -7 -13 -6 -3 7 7 8
14 27 15 42 1 14 6 26 10 26 4 0 8 10 8 23 0 13 6 29 13 36 10 11 10 13 0 7
-7 -4 -13 -2 -13 3 0 6 5 11 10 11 6 0 10 9 10 19 0 11 5 23 11 27 8 5 8 9 -1
14 -8 5 -7 11 4 23 19 19 21 31 4 21 -7 -4 -6 1 3 12 8 10 14 29 13 42 0 12 3
22 8 22 5 0 7 4 3 9 -3 5 0 13 6 17 8 5 8 8 -1 14 -9 5 -8 11 2 21 7 8 13 24
12 37 -1 12 3 22 9 22 6 0 7 3 4 6 -3 4 -2 16 4 27 9 15 8 18 -3 11 -11 -6
-11 -5 1 9 7 9 10 17 5 17 -5 0 -2 5 6 10 13 9 13 11 0 19 -12 9 -12 11 2 16
9 4 14 13 11 21 -3 8 0 21 7 29 10 12 10 15 0 15 -9 0 -9 4 -2 13 6 7 13 34
16 60 3 26 10 57 16 67 7 14 7 20 0 20 -5 0 -10 5 -10 11 0 5 4 8 9 5 5 -3 11
1 15 9 3 8 2 15 -3 15 -9 0 10 85 22 96 11 12 8 26 -4 18 -8 -5 -8 -1 0 14 6
11 11 36 11 54 0 19 5 39 12 46 9 9 9 12 -1 12 -10 0 -11 3 -3 13 6 7 13 39
14 70 2 31 7 57 12 57 4 0 6 18 4 40 -2 22 0 40 5 40 4 0 6 4 3 9 -4 5 0 12 6
14 10 4 10 6 0 6 -9 1 -10 6 -2 20 7 14 6 21 -3 24 -9 4 -9 6 1 6 7 1 10 6 7
11 -3 6 -1 10 5 10 8 0 8 6 0 20 -6 11 -7 20 -2 20 5 0 8 11 7 25 -2 14 1 27
6 31 6 3 6 12 0 21 -6 11 -4 21 5 30 9 10 11 21 4 38 -7 18 -6 25 3 25 8 0 7
4 -3 10 -11 7 -11 10 -2 10 7 0 10 4 7 10 -3 5 -1 19 6 31 8 16 8 20 -1 14 -9
-6 -9 -2 -1 14 9 16 9 21 0 21 -8 0 -8 4 1 15 7 8 10 15 8 15 -3 0 -2 18 2 40
4 22 3 37 -1 34 -5 -3 -9 0 -9 5 0 6 4 11 9 11 4 0 7 11 6 25 -2 14 1 27 6 31
5 3 5 13 -1 25 -8 14 -7 19 2 19 9 0 9 3 -2 10 -8 5 -10 10 -5 10 6 0 11 12
12 28 7 113 7 159 1 155 -5 -2 -8 1 -8 6 0 6 4 11 9 11 4 0 7 12 5 27 -1 15 2
33 8 40 6 7 6 13 1 13 -5 0 -9 9 -9 20 0 11 4 20 9 20 5 0 4 6 -2 14 -9 11 -9
15 1 19 10 4 10 6 -1 6 -11 1 -11 4 -1 16 10 12 10 15 0 15 -10 0 -10 3 -1 14
9 11 9 15 -1 19 -10 4 -10 6 1 6 11 1 11 4 1 16 -7 8 -8 15 -3 15 5 0 9 9 9
20 0 11 -4 20 -9 20 -5 0 -4 7 3 15 7 8 8 15 3 15 -5 0 -10 7 -10 15 0 8 5 15
10 15 5 0 4 6 -2 14 -9 11 -9 15 1 19 10 4 10 6 -1 6 -11 1 -11 4 -1 16 10 12
10 15 0 15 -10 0 -10 3 -1 14 9 11 9 15 -1 19 -10 4 -10 6 1 6 11 1 11 4 1 16
-7 8 -8 15 -3 15 5 0 9 9 9 20 0 11 -4 20 -9 20 -5 0 -4 7 3 15 7 8 8 15 3 15
-5 0 -10 7 -10 15 0 8 5 15 10 15 5 0 4 6 -2 14 -9 11 -9 15 1 19 10 4 10 6
-1 6 -11 1 -11 4 -1 16 10 12 10 15 0 15 -10 0 -10 3 -1 14 9 11 9 15 -1 19
-10 4 -10 6 1 6 11 1 11 4 1 16 -7 8 -8 15 -3 15 5 0 10 7 10 15 0 8 -5 15
-10 15 -5 0 -4 7 3 15 8 10 9 15 1 15 -7 0 -8 8 -1 25 7 17 6 25 -1 25 -8 0
-7 5 1 15 9 11 9 15 1 15 -9 0 -9 5 -1 20 8 14 8 20 0 20 -8 0 -8 6 0 20 8 15
8 20 -2 20 -9 0 -9 3 2 10 8 5 10 10 4 10 -7 0 -14 9 -17 20 -3 11 -1 20 4 20
5 0 9 5 9 11 0 5 -4 8 -9 5 -4 -3 -5 12 -1 34 4 22 3 37 -1 34 -5 -3 -9 0 -9
5 0 6 4 11 9 11 9 0 -1 69 -13 88 -4 7 -2 12 6 12 9 0 9 3 -2 10 -9 6 -10 10
-3 10 8 0 9 9 3 30 -6 20 -5 30 2 30 6 0 6 6 -2 15 -7 8 -9 15 -4 15 4 0 3 5
-3 11 -7 7 -8 20 -3 34 4 12 4 28 0 36 -6 8 -4 16 3 21 9 6 9 8 -1 8 -7 0 -10
5 -7 10 3 6 1 10 -5 10 -6 0 -8 5 -3 13 11 17 10 41 -2 49 -6 5 -4 8 5 8 12 0
13 2 1 9 -7 5 -14 23 -16 40 -1 17 1 28 6 25 5 -3 9 0 9 5 0 6 -5 11 -11 11
-5 0 -7 5 -4 10 3 6 2 10 -4 10 -7 0 -7 8 -2 23 6 14 6 30 0 38 -5 8 -9 28 -9
46 0 17 -6 34 -12 36 -10 4 -9 6 1 6 9 1 7 8 -9 21 -12 11 -26 17 -30 15 -4
-3 -13 2 -20 10 -6 7 -18 11 -25 9 -8 -3 -20 -2 -27 2 -7 5 -19 9 -26 10 -8 2
-21 6 -30 10 -22 10 -21 9 -64 18 -21 5 -38 12 -38 18 0 5 -5 6 -11 2 -6 -3
-15 0 -20 7 -7 12 -9 12 -9 0 0 -11 -4 -10 -16 5 -8 10 -12 12 -8 4 7 -12 5
-13 -8 -3 -8 7 -18 10 -21 6 -4 -3 -7 -1 -7 5 0 6 -9 9 -20 7 -11 -2 -20 1
-20 7 0 6 -3 8 -7 5 -3 -4 -16 -1 -27 6 -12 7 -31 12 -43 11 -13 -1 -23 3 -23
7 0 5 -8 9 -18 9 -10 0 -24 6 -31 13 -11 10 -12 9 -6 -3 6 -12 5 -13 -6 -2 -7
6 -23 12 -36 12 -13 0 -23 4 -23 8 0 7 -16 11 -57 14 -7 1 -13 6 -13 11 0 5
-9 7 -20 4 -11 -3 -18 -1 -14 4 3 5 -4 10 -15 10 -20 1 -32 4 -48 9 -5 1 -11
2 -15 1 -5 0 -8 3 -8 9 0 5 -6 7 -13 4 -8 -3 -20 2 -27 11 -10 12 -16 13 -26
4 -10 -8 -14 -8 -14 0 0 6 -11 11 -25 11 -14 0 -25 6 -25 13 0 8 -4 7 -10 -3
-6 -10 -10 -11 -10 -2 0 6 -9 12 -20 12 -11 0 -20 4 -20 9 0 6 -9 8 -19 6 -11
-2 -22 3 -25 11 -4 12 -10 12 -26 4 -11 -6 -20 -7 -20 -2 0 10 -38 25 -54 23
-4 -1 -14 3 -20 9 -7 5 -16 7 -19 3 -4 -3 -7 0 -7 8 0 11 -2 11 -10 -1 -8 -12
-10 -12 -10 -1 0 8 -3 11 -7 8 -3 -4 -15 0 -25 10 -14 12 -18 13 -18 3 0 -11
-3 -11 -12 -2 -7 7 -20 12 -29 12 -9 0 -22 6 -28 14 -7 8 -21 12 -31 9 -11 -3
-26 0 -33 6 -8 6 -17 8 -20 4 -4 -3 -7 -1 -7 5 0 6 -7 9 -15 6 -8 -4 -15 -2
-15 3 0 5 -10 10 -22 11 -45 4 -60 9 -66 18 -4 5 -17 9 -30 8 -12 -1 -25 3
-28 7 -3 5 -14 9 -25 9 -10 0 -19 4 -19 8 0 4 -10 8 -22 9 -30 0 -52 6 -59 16
-3 4 -19 9 -36 10 -17 1 -29 5 -26 10 2 4 -4 7 -14 7 -11 0 -25 6 -32 13 -11
10 -12 9 -6 -3 6 -12 5 -13 -6 -2 -7 6 -23 12 -36 12 -13 0 -23 4 -23 8 0 4
-12 9 -27 10 -15 1 -30 8 -35 15 -6 9 -8 9 -8 -2 0 -11 -5 -9 -22 5 -13 12
-18 13 -13 4 8 -13 7 -13 -9 -1 -16 13 -44 21 -88 24 -10 1 -18 5 -18 9 0 4
-6 8 -12 8 -7 0 -26 7 -41 15 -15 8 -25 9 -21 4 4 -6 -6 -3 -22 7 -15 11 -25
13 -21 7 6 -9 3 -11 -7 -7 -9 3 -14 10 -11 14 3 5 -3 7 -12 5 -10 -1 -24 2
-30 7 -7 6 -20 8 -28 4 -8 -3 -15 -1 -15 5 0 6 -4 8 -9 5 -5 -4 -11 -2 -13 4
-1 5 -15 11 -30 12 -16 1 -28 6 -28 11 0 4 -4 5 -10 2 -5 -3 -10 -2 -10 4 0 6
-7 8 -15 5 -9 -4 -15 0 -15 7 0 11 -3 11 -10 -1 -8 -12 -10 -12 -10 -1 0 8 -3
11 -7 8 -3 -4 -12 -2 -20 4 -7 6 -13 9 -13 6 0 -3 -15 0 -32 7 -18 7 -39 11
-45 9 -7 -3 -13 0 -13 7 0 6 -4 8 -10 5 -5 -3 -10 -2 -10 2 0 5 -12 10 -27 11
-15 1 -30 8 -35 15 -6 9 -8 8 -8 -3 0 -13 -1 -13 -10 0 -5 8 -10 11 -10 6 0
-5 -7 -3 -15 4 -8 7 -15 9 -15 5 0 -4 -7 -2 -15 5 -9 7 -18 10 -22 7 -3 -4
-12 -2 -20 4 -7 6 -13 8 -13 4 0 -5 -10 0 -22 11 -12 10 -18 13 -14 7 4 -7 2
-13 -3 -13 -6 0 -11 5 -11 10 0 6 -11 10 -25 10 -14 0 -25 4 -25 10 0 5 -6 7
-14 4 -8 -3 -17 0 -21 5 -3 6 -11 9 -16 6 -5 -4 -9 0 -9 7 0 9 -3 9 -10 -2 -5
-8 -10 -10 -10 -4 0 12 -36 27 -57 25 -7 -1 -13 3 -13 8 0 6 -7 7 -17 4 -12
-5 -14 -3 -8 8 8 12 6 12 -8 0 -12 -9 -17 -10 -17 -2 0 7 -4 9 -10 6 -5 -3
-10 0 -10 7 0 11 -2 10 -9 0 -6 -11 -10 -10 -15 4 -5 13 -10 14 -18 6 -8 -8
-14 -7 -25 3 -7 8 -20 12 -28 9 -8 -4 -15 -1 -15 6 0 7 -6 10 -14 7 -7 -3 -19
0 -25 6 -6 6 -11 8 -11 4 0 -4 -13 -1 -29 7 -16 9 -31 12 -35 9 -3 -4 -6 -2
-6 3 0 9 -24 14 -72 17 -9 1 -14 5 -12 9 4 7 -18 10 -42 7 -4 0 -10 4 -14 10
-3 7 -20 13 -37 14 -17 1 -29 5 -26 10 4 6 -28 12 -49 8 -5 0 -8 4 -8 9 0 6
-11 10 -25 10 -14 0 -25 5 -25 11 0 5 -4 8 -9 4 -6 -3 -36 3 -67 14 -31 11
-61 18 -65 15 -5 -3 -9 0 -9 5 0 6 -11 11 -25 11 -14 0 -25 6 -25 13 0 8 -4 7
-10 -3 -6 -10 -10 -11 -10 -2 0 6 -7 12 -15 12 -8 0 -15 5 -15 12 0 9 -3 9
-12 0 -9 -9 -15 -9 -27 1 -9 6 -35 11 -58 9z"/>
</g>
</svg>
